<svg xmlns="http://www.w3.org/2000/svg" xmlns:xlink="http://www.w3.org/1999/xlink" zoomAndPan="magnify" preserveAspectRatio="xMidYMid meet" version="1.2" viewBox="44.19 148.59 265.63 59.43"><defs><clipPath id="97358a9211"><path d="M 44.1875 148.824219 L 103.140625 148.824219 L 103.140625 207.777344 L 44.1875 207.777344 Z M 44.1875 148.824219 "/></clipPath><clipPath id="4a62df479e"><path d="M 52.195312 156.441406 L 95.128906 156.441406 L 95.128906 200.160156 L 52.195312 200.160156 Z M 52.195312 156.441406 "/></clipPath><clipPath id="fdae49a1b7"><path d="M 79.480469 183.199219 L 95.128906 183.199219 L 95.128906 207.773438 L 79.480469 207.773438 Z M 79.480469 183.199219 "/></clipPath><clipPath id="6b87935d5a"><path d="M 79.480469 195.507812 L 95.128906 183.242188 L 95.128906 207.773438 Z M 79.480469 195.507812 "/></clipPath><clipPath id="f6aebeb8d2"><path d="M 44.082031 148.578125 L 52.195312 148.578125 L 52.195312 156.289062 L 44.082031 156.289062 Z M 44.082031 148.578125 "/></clipPath><clipPath id="bb9e8dcdb6"><path d="M 95.128906 200.160156 L 103.382812 200.160156 L 103.382812 208.019531 L 95.128906 208.019531 Z M 95.128906 200.160156 "/></clipPath></defs><g id="1af6c82797"><g clip-rule="nonzero" clip-path="url(#97358a9211)"><path style=" stroke:none;fill-rule:nonzero;fill:#000000;fill-opacity:1;" d="M 44.1875 148.824219 L 103.140625 148.824219 L 103.140625 207.777344 L 44.1875 207.777344 Z M 44.1875 148.824219 "/></g><g clip-rule="nonzero" clip-path="url(#4a62df479e)"><path style=" stroke:none;fill-rule:nonzero;fill:#ffffff;fill-opacity:1;" d="M 52.195312 156.441406 L 95.128906 156.441406 L 95.128906 200.210938 L 52.195312 200.210938 Z M 52.195312 156.441406 "/></g><g clip-rule="nonzero" clip-path="url(#fdae49a1b7)"><g clip-rule="nonzero" clip-path="url(#6b87935d5a)"><path style=" stroke:none;fill-rule:nonzero;fill:#ffffff;fill-opacity:1;" d="M 79.480469 207.773438 L 79.480469 183.261719 L 95.128906 183.261719 L 95.128906 207.773438 Z M 79.480469 207.773438 "/></g></g><g clip-rule="nonzero" clip-path="url(#f6aebeb8d2)"><path style=" stroke:none;fill-rule:nonzero;fill:#ffffff;fill-opacity:1;" d="M 52.195312 148.585938 L 44.234375 156.429688 L 44.234375 148.585938 Z M 52.195312 148.585938 "/></g><g clip-rule="nonzero" clip-path="url(#bb9e8dcdb6)"><path style=" stroke:none;fill-rule:nonzero;fill:#ffffff;fill-opacity:1;" d="M 95.128906 208.011719 L 103.089844 200.167969 L 103.089844 208.011719 Z M 95.128906 208.011719 "/></g><g style="fill:#171717;fill-opacity:1;"><g transform="translate(112.968081, 195.714028)"><path style="stroke:none" d="M 12.890625 0 L 12.890625 -28.1875 L 1.53125 -28.1875 L 1.53125 -35.8125 L 32.375 -35.8125 L 32.375 -28.1875 L 21.03125 -28.1875 L 21.03125 0 Z M 12.890625 0 "/></g></g><g style="fill:#171717;fill-opacity:1;"><g transform="translate(142.380951, 195.714028)"><path style="stroke:none" d="M 4.296875 0 L 4.296875 -35.8125 L 12.4375 -35.8125 L 12.4375 0 Z M 4.296875 0 "/></g></g><g style="fill:#171717;fill-opacity:1;"><g transform="translate(154.605906, 195.714028)"><path style="stroke:none" d="M 4.296875 0 L 4.296875 -35.8125 L 12.4375 -35.8125 L 12.4375 -22.046875 L 15.5 -22.046875 C 17.507812 -22.046875 18.984375 -22.367188 19.921875 -23.015625 C 20.859375 -23.671875 21.632812 -24.832031 22.25 -26.5 L 25.625 -35.8125 L 34.421875 -35.8125 L 29.46875 -23.078125 C 29.019531 -21.910156 28.515625 -20.863281 27.953125 -19.9375 C 27.390625 -19.019531 26.75 -18.222656 26.03125 -17.546875 L 35.703125 0 L 26.25 0 L 18.5625 -14.53125 C 18.257812 -14.5 17.960938 -14.484375 17.671875 -14.484375 C 17.378906 -14.484375 17.066406 -14.484375 16.734375 -14.484375 L 12.4375 -14.484375 L 12.4375 0 Z M 4.296875 0 "/></g></g><g style="fill:#171717;fill-opacity:1;"><g transform="translate(187.292665, 195.714028)"><path style="stroke:none" d="M 4.296875 0 L 4.296875 -35.8125 L 27.828125 -35.8125 L 27.828125 -28.953125 L 12.375 -28.953125 L 12.375 -21.53125 L 26.453125 -21.53125 L 26.453125 -14.734375 L 12.375 -14.734375 L 12.375 -6.90625 L 28.390625 -6.90625 L 28.390625 0 Z M 4.296875 0 "/></g></g><g style="fill:#171717;fill-opacity:1;"><g transform="translate(213.789738, 195.714028)"><path style="stroke:none" d="M 12.890625 0 L 12.890625 -28.1875 L 1.53125 -28.1875 L 1.53125 -35.8125 L 32.375 -35.8125 L 32.375 -28.1875 L 21.03125 -28.1875 L 21.03125 0 Z M 12.890625 0 "/></g></g><g style="fill:#38b6ff;fill-opacity:1;"><g transform="translate(243.213495, 195.714028)"><path style="stroke:none" d="M 4.296875 0 L 4.296875 -35.8125 L 12.4375 -35.8125 L 12.4375 -22.046875 L 15.5 -22.046875 C 17.507812 -22.046875 18.984375 -22.367188 19.921875 -23.015625 C 20.859375 -23.671875 21.632812 -24.832031 22.25 -26.5 L 25.625 -35.8125 L 34.421875 -35.8125 L 29.46875 -23.078125 C 29.019531 -21.910156 28.515625 -20.863281 27.953125 -19.9375 C 27.390625 -19.019531 26.75 -18.222656 26.03125 -17.546875 L 35.703125 0 L 26.25 0 L 18.5625 -14.53125 C 18.257812 -14.5 17.960938 -14.484375 17.671875 -14.484375 C 17.378906 -14.484375 17.066406 -14.484375 16.734375 -14.484375 L 12.4375 -14.484375 L 12.4375 0 Z M 4.296875 0 "/></g></g><g style="fill:#38b6ff;fill-opacity:1;"><g transform="translate(275.900253, 195.714028)"><path style="stroke:none" d="M 18.921875 0.71875 C 15.816406 0.71875 13.148438 0.0976562 10.921875 -1.140625 C 8.691406 -2.390625 6.96875 -4.164062 5.75 -6.46875 C 4.539062 -8.769531 3.9375 -11.523438 3.9375 -14.734375 L 3.9375 -35.8125 L 12.078125 -35.8125 L 12.078125 -15.296875 C 12.078125 -9.773438 14.359375 -7.015625 18.921875 -7.015625 C 23.492188 -7.015625 25.78125 -9.773438 25.78125 -15.296875 L 25.78125 -35.8125 L 33.921875 -35.8125 L 33.921875 -14.734375 C 33.921875 -11.523438 33.3125 -8.769531 32.09375 -6.46875 C 30.882812 -4.164062 29.160156 -2.390625 26.921875 -1.140625 C 24.691406 0.0976562 22.023438 0.71875 18.921875 0.71875 Z M 18.921875 0.71875 "/></g></g></g></svg>